<svg width="38" height="38" viewBox="0 0 38 38" fill="none" xmlns="http://www.w3.org/2000/svg">
<path fill-rule="evenodd" clip-rule="evenodd" d="M9.67747 9.54767C6.70948 12.5156 6.70948 17.3277 9.67747 20.2957C12.6455 23.2637 17.4575 23.2637 20.4255 20.2957C23.3935 17.3277 23.3935 12.5156 20.4255 9.54766C17.4575 6.57968 12.6455 6.57968 9.67747 9.54767ZM6.99046 22.9827C2.53848 18.5307 2.53848 11.3126 6.99046 6.86066C11.4424 2.40868 18.6605 2.40868 23.1125 6.86066C27.2293 10.9774 27.5392 17.4594 24.0424 21.9324L25.8093 22.9925L32.3536 29.5368L29.6666 32.2238L23.1223 25.6795L22.0622 23.9126C17.5892 27.4094 11.1072 27.0995 6.99046 22.9827Z" fill="#FFB052"/>
</svg>
