<svg width="32" height="32" viewBox="0 0 32 32" fill="none" xmlns="http://www.w3.org/2000/svg">
<path d="M23.7875 9.20624L20.9312 23.6125C20.9312 23.6125 20.5312 24.6125 19.4312 24.1312L12.8375 19.075L10.4375 17.9187L6.39998 16.5625C6.39998 16.5625 5.78123 16.3437 5.71873 15.8625C5.65623 15.3812 6.41873 15.125 6.41873 15.125L22.4687 8.83124C22.4687 8.82499 23.7875 8.24374 23.7875 9.20624Z" fill="white"/>
<path d="M12.325 23.45C12.325 23.45 12.1313 23.4312 11.8938 22.675C11.6563 21.9187 10.4375 17.9187 10.4375 17.9187L20.1313 11.7625C20.1313 11.7625 20.6938 11.425 20.6687 11.7625C20.6687 11.7625 20.7688 11.825 20.4688 12.1C20.1687 12.3812 12.8562 18.9562 12.8562 18.9562" fill="#F1F0F0"/>
<path d="M15.3625 21.0125L12.7563 23.3937C12.7563 23.3937 12.55 23.55 12.3313 23.45L12.8313 19.0312" fill="white"/>
</svg>
