<svg width="22" height="13" viewBox="0 0 22 13" fill="none" xmlns="http://www.w3.org/2000/svg">
<path fill-rule="evenodd" clip-rule="evenodd" d="M10.3939 12.0186H11.6501C11.6501 12.0186 12.0314 11.9749 12.2251 11.7686C12.4064 11.5749 12.4001 11.2186 12.4001 11.2186C12.4001 11.2186 12.3751 9.53111 13.1564 9.28736C13.9251 9.04361 14.9189 10.9124 15.9689 11.6374C16.7626 12.1811 17.3626 12.0624 17.3626 12.0624L20.1689 12.0249C20.1689 12.0249 21.6376 11.9374 20.9376 10.7811C20.8814 10.6874 20.5314 9.92486 18.8501 8.36861C17.0939 6.73736 17.3251 6.99986 19.4439 4.17486C20.7376 2.45611 21.2501 1.40611 21.0876 0.956112C20.9314 0.524862 19.9876 0.643612 19.9876 0.643612L16.8251 0.662362C16.8251 0.662362 16.5939 0.631111 16.4189 0.731111C16.2501 0.831111 16.1376 1.06861 16.1376 1.06861C16.1376 1.06861 15.6376 2.39986 14.9689 3.53111C13.5626 5.91861 13.0001 6.04361 12.7689 5.89986C12.2314 5.54986 12.3689 4.51236 12.3689 3.76861C12.3689 1.45611 12.7189 0.487362 11.6876 0.237362C11.3439 0.156112 11.0939 0.0998616 10.2126 0.0936116C9.08761 0.0811116 8.13136 0.0936118 7.58761 0.362362C7.23136 0.537362 6.95011 0.931111 7.11886 0.949861C7.32511 0.974861 7.80011 1.08111 8.05011 1.41861C8.37511 1.85611 8.36261 2.84986 8.36261 2.84986C8.36261 2.84986 8.55011 5.57486 7.92511 5.91236C7.50011 6.14361 6.91261 5.66861 5.66261 3.50611C5.01886 2.39361 4.53761 1.16861 4.53761 1.16861C4.53761 1.16861 4.44386 0.937362 4.27511 0.818612C4.06886 0.668612 3.78761 0.624862 3.78761 0.624862L0.787611 0.643612C0.787611 0.643612 0.337611 0.656112 0.168861 0.849862C0.0251113 1.02486 0.156361 1.38736 0.156361 1.38736C0.156361 1.38736 2.50636 6.88736 5.16886 9.65611C7.62511 12.1874 10.3939 12.0186 10.3939 12.0186Z" fill="white"/>
</svg>
