<svg width="32" height="32" viewBox="0 0 32 32" fill="none" xmlns="http://www.w3.org/2000/svg">
<path fill-rule="evenodd" clip-rule="evenodd" d="M23.773 7.38332C21.789 5.39612 19.1458 4.30172 16.333 4.29852C10.5378 4.29852 5.81785 9.01532 5.81785 14.8137C5.81785 16.6665 6.30105 18.4777 7.22265 20.0713L5.73145 25.5209L11.3058 24.0585C12.8418 24.8969 14.5698 25.3385 16.3298 25.3385H16.333C22.1282 25.3385 26.845 20.6217 26.8482 14.8233C26.8514 12.0137 25.7602 9.37052 23.773 7.38332ZM16.3362 23.5625H16.333C14.765 23.5625 13.2258 23.1401 11.885 22.3433L11.565 22.1545L8.25625 23.0217L9.13945 19.7961L8.93145 19.4665C8.05785 18.0745 7.59385 16.4681 7.59385 14.8137C7.59705 9.99452 11.517 6.07452 16.3394 6.07452C18.6754 6.07452 20.8674 6.98652 22.5186 8.63772C24.1698 10.2889 25.0786 12.4873 25.0754 14.8201C25.0754 19.6425 21.1522 23.5625 16.3362 23.5625ZM21.1298 17.0153C20.8674 16.8841 19.5746 16.2473 19.3346 16.1609C19.0946 16.0745 18.9186 16.0297 18.7426 16.2921C18.5666 16.5545 18.0642 17.1465 17.9106 17.3225C17.757 17.4985 17.6034 17.5209 17.341 17.3897C17.0786 17.2585 16.2306 16.9801 15.229 16.0841C14.4482 15.3865 13.9202 14.5257 13.7666 14.2633C13.613 14.0009 13.7506 13.8569 13.8818 13.7257C14.0002 13.6073 14.1442 13.4185 14.2754 13.2649C14.4066 13.1113 14.4514 13.0025 14.5378 12.8265C14.6242 12.6505 14.5826 12.4969 14.5154 12.3657C14.4482 12.2345 13.9234 10.9417 13.7058 10.4137C13.4914 9.90172 13.277 9.97212 13.1138 9.96252C12.9602 9.95612 12.7842 9.95292 12.6114 9.95292C12.4354 9.95292 12.1506 10.0201 11.9106 10.2825C11.6706 10.5449 10.9922 11.1817 10.9922 12.4745C10.9922 13.7673 11.933 15.0185 12.0642 15.1913C12.1954 15.3673 13.917 18.0201 16.5538 19.1593C17.181 19.4313 17.6706 19.5913 18.0514 19.7129C18.6818 19.9145 19.2546 19.8857 19.7058 19.8185C20.2114 19.7417 21.261 19.1817 21.4786 18.5705C21.6962 17.9561 21.6962 17.4313 21.6322 17.3225C21.5682 17.2137 21.3922 17.1497 21.1298 17.0153Z" fill="white"/>
</svg>
