<svg width="363" height="76" viewBox="0 0 363 76" fill="none" xmlns="http://www.w3.org/2000/svg">
<g clip-path="url(#clip0_44_216)">
<path fill-rule="evenodd" clip-rule="evenodd" d="M32.5339 73.4484H59.7135L72.5092 59.6427L85.8495 73.0384H143.793L73.326 0L0 73.494L32.5339 73.4484Z" fill="#B48348"/>
<path fill-rule="evenodd" clip-rule="evenodd" d="M360.459 10.5251C360.459 9.43162 359.642 8.93042 358.009 8.93042H355.831V14.4892H357.192V12.211H357.873L358.962 14.4892H360.459L359.234 12.0287C360.005 11.8465 360.459 11.2997 360.459 10.5251ZM357.873 11.4364H357.192V9.75057H357.827C358.644 9.75057 359.052 10.0239 359.052 10.5707C359.007 11.163 358.599 11.4364 357.873 11.4364Z" fill="#B48348"/>
<path fill-rule="evenodd" clip-rule="evenodd" d="M361.548 8.24701C360.595 7.29017 359.279 6.74341 357.918 6.74341C356.058 6.74341 354.515 7.65468 353.608 9.20384C353.063 10.024 352.836 10.9353 352.836 11.801C352.836 13.1223 353.335 14.3525 354.288 15.3094C355.241 16.2662 356.557 16.813 357.918 16.813C359.234 16.813 360.505 16.2662 361.457 15.3549C362.41 14.3981 362.955 13.1679 362.955 11.801C363 10.4796 362.501 9.20384 361.548 8.24701ZM360.958 14.8082C360.051 15.5827 359.053 16.0384 357.964 16.0384C356.784 16.0384 355.786 15.5372 354.969 14.717C354.152 13.9424 353.744 12.9401 353.744 11.8465C353.744 10.6619 354.243 9.65948 355.06 8.83933C355.831 8.01919 356.829 7.60912 358.009 7.60912C359.189 7.60912 360.187 8.11032 361.004 8.93046C361.82 9.70504 362.229 10.7074 362.229 11.9377C362.183 12.9401 361.684 14.0336 360.958 14.8082Z" fill="#B48348"/>
<path fill-rule="evenodd" clip-rule="evenodd" d="M167.479 20.2302C167.479 18.9088 168.16 17.633 171.654 17.633C175.828 17.633 178.641 19.7745 180.819 21.2781V6.83447C179.64 7.65462 178.823 7.74574 177.462 7.74574C174.875 7.74574 172.652 6.83447 168.977 6.83447C158.767 6.83447 152.551 13.0767 152.551 20.868C152.551 32.8968 172.697 34.3549 172.697 42.374C172.697 45.7913 169.476 48.1606 164.802 48.1606C161.853 48.1606 159.539 47.3405 157.406 46.0191L134.673 7.10785C134.582 6.97116 134.174 6.97116 134.129 7.01672L104.907 56.1798C104.499 56.9544 103.727 57.8201 102.865 58.3213H122.785C121.877 57.5467 121.333 56.9544 121.333 55.8609C121.333 55.0407 121.56 54.4028 121.968 53.5371L123.465 50.4388H144.837L146.289 53.5371C146.788 54.4484 146.924 55.0407 146.924 55.8609C146.924 56.9544 146.425 57.5923 145.563 58.3213H159.811C161.717 58.5947 163.713 58.6858 165.982 58.6858C179.277 58.6858 187.626 52.717 187.626 42.7841C187.58 27.7026 167.479 25.7889 167.479 20.2302ZM129.364 40.3237L134.582 31.8489L139.846 40.3237H129.364Z" fill="#B48348"/>
<path fill-rule="evenodd" clip-rule="evenodd" d="M234.453 57.8202H266.306V44.5612C264.582 46.1559 262.54 46.976 259.817 46.976H250.969V13.1223C250.969 10.4341 251.514 8.70265 253.147 7.97363H234.453C236.177 8.74821 236.631 10.4341 236.631 13.1223V52.5803C236.676 55.3142 236.177 57.0911 234.453 57.8202Z" fill="#B48348"/>
<path fill-rule="evenodd" clip-rule="evenodd" d="M203.371 52.626V37.7723H216.938V52.626C216.938 55.3143 216.393 57.0912 214.76 57.8658H233.454C231.821 57.0912 231.276 55.3143 231.276 52.626V13.168C231.276 10.4797 231.821 8.7483 233.454 8.01929H214.76C216.393 8.79387 216.938 10.4797 216.938 13.168V27.0649H203.371V13.168C203.371 10.4797 203.915 8.7483 205.549 8.01929H186.854C188.488 8.79387 189.032 10.4797 189.032 13.168V52.626C189.032 55.3143 188.488 57.0912 186.854 57.8658H205.549C203.915 57.0912 203.371 55.3143 203.371 52.626Z" fill="#B48348"/>
<path fill-rule="evenodd" clip-rule="evenodd" d="M330.829 7.97363C331.737 8.61152 332.326 9.20384 332.326 10.1607C332.326 10.9353 331.918 11.6643 331.011 13.0312L323.705 24.3765L315.901 13.259C314.857 11.6643 314.313 10.8441 314.313 10.1607C314.313 9.20384 314.948 8.56596 315.81 7.97363H305.011H294.393H267.213C269.255 9.02159 269.664 10.6619 269.664 13.1223V52.5803C269.664 55.2686 269.119 57.0456 267.486 57.8202H305.283V44.5612C303.513 46.1559 301.426 46.976 298.794 46.976H283.957V38.2278H293.667C296.117 38.2278 297.206 39.4125 298.522 40.6883V25.0144C297.206 26.2446 296.117 27.4748 293.667 27.4748H283.957V18.6811H298.477C301.154 18.6811 303.287 19.5923 304.965 21.2326V20.7314L316.173 35.2662V52.5803C316.173 55.2686 315.629 57.0456 313.995 57.8202H332.69C331.056 57.0456 330.512 55.2686 330.512 52.5803V35.2662L349.569 11.2086C350.794 9.75061 351.883 8.74821 353.063 7.97363H330.829Z" fill="#B48348"/>
<path fill-rule="evenodd" clip-rule="evenodd" d="M147.378 74.1319H148.603V70.0312H152.959V69.1199H148.603V66.3861H154.139V65.4749H147.378V74.1319Z" fill="#B48348"/>
<path fill-rule="evenodd" clip-rule="evenodd" d="M161.263 70.988C161.263 72.6283 160.582 73.4029 158.813 73.4029C157.179 73.4029 156.408 72.6283 156.408 70.988V65.4749H155.092V70.988C155.092 73.2662 156.181 74.2686 158.722 74.2686C161.263 74.2686 162.397 73.1751 162.397 70.988V65.4749H161.217V70.988H161.263Z" fill="#B48348"/>
<path fill-rule="evenodd" clip-rule="evenodd" d="M172.425 67.9353C172.425 66.3406 171.109 65.4749 168.568 65.4749H164.802V74.1319H166.118V70.3502H169.249L171.291 74.1319H172.607L170.429 70.1223C171.79 69.7123 172.425 68.9833 172.425 67.9353ZM168.387 69.4389H166.118V66.3406H168.523C170.156 66.3406 171.064 66.8873 171.064 67.9353C171.064 68.9833 170.156 69.4389 168.387 69.4389Z" fill="#B48348"/>
<path fill-rule="evenodd" clip-rule="evenodd" d="M181.001 72.6283L176.01 65.4749H174.195V74.1319H175.284V66.4317L180.729 74.1319H182.09V65.4749H181.001V72.6283Z" fill="#B48348"/>
<path d="M185.856 65.4749H184.54V74.1319H185.856V65.4749Z" fill="#B48348"/>
<path fill-rule="evenodd" clip-rule="evenodd" d="M186.945 66.3861H189.94V74.1319H191.346V66.3861H194.341V65.4749H186.945V66.3861Z" fill="#B48348"/>
<path fill-rule="evenodd" clip-rule="evenodd" d="M201.601 70.988C201.601 72.6283 200.921 73.4029 199.151 73.4029C197.427 73.4029 196.746 72.6283 196.746 70.988V65.4749H195.43V70.988C195.43 73.2662 196.519 74.2686 198.969 74.2686C201.51 74.2686 202.645 73.1751 202.645 70.988V65.4749H201.556V70.988H201.601Z" fill="#B48348"/>
<path fill-rule="evenodd" clip-rule="evenodd" d="M212.763 67.9353C212.763 66.3406 211.448 65.4749 208.861 65.4749H205.186V74.1319H206.502V70.3502H209.587L211.629 74.1319H212.945L210.812 70.1223C212.083 69.7123 212.763 68.9833 212.763 67.9353ZM208.725 69.4389H206.456V66.3406H208.77C210.495 66.3406 211.311 66.8873 211.311 67.9353C211.311 68.9833 210.495 69.4389 208.725 69.4389Z" fill="#B48348"/>
<path fill-rule="evenodd" clip-rule="evenodd" d="M215.849 70.0312H220.16V69.1199H215.849V66.3861H221.339V65.4749H214.533V74.1319H221.476V73.2207H215.849V70.0312Z" fill="#B48348"/>
<path d="M228.917 65.4749H227.601V74.1319H228.917V65.4749Z" fill="#B48348"/>
<path fill-rule="evenodd" clip-rule="evenodd" d="M238.219 72.6283L233.182 65.4749H231.367V74.1319H232.502V66.4317L237.947 74.1319H239.262V65.4749H238.219V72.6283Z" fill="#B48348"/>
<path fill-rule="evenodd" clip-rule="evenodd" d="M248.02 66.1583C247.339 65.6571 246.386 65.4749 245.207 65.4749H241.713V74.1319H244.98C248.111 74.1319 250.107 72.4005 250.107 69.8034C250.152 68.2087 249.381 66.9785 248.02 66.1583ZM245.07 73.2207H243.029V66.3406H245.025C247.43 66.3406 248.7 67.5708 248.7 69.7578C248.7 71.9905 247.43 73.2207 245.07 73.2207Z" fill="#B48348"/>
<path fill-rule="evenodd" clip-rule="evenodd" d="M258.093 70.988C258.093 72.6283 257.412 73.4029 255.643 73.4029C253.919 73.4029 253.238 72.6283 253.238 70.988V65.4749H251.922V70.988C251.922 73.2662 253.011 74.2686 255.461 74.2686C258.002 74.2686 259.137 73.1751 259.137 70.988V65.4749H258.048V70.988H258.093Z" fill="#B48348"/>
<path fill-rule="evenodd" clip-rule="evenodd" d="M265.625 69.2566C264.809 69.0288 263.992 68.8921 263.311 68.5731C262.948 68.3453 262.676 68.0264 262.676 67.6163C262.676 66.7962 263.584 66.2494 264.945 66.2494C266.306 66.2494 267.259 66.7506 267.622 67.753L268.847 67.4796C268.303 66.1127 266.941 65.3381 264.945 65.3381C262.767 65.3381 261.315 66.3861 261.315 67.7986C261.315 68.3453 261.587 68.8465 262.132 69.1655C262.948 69.8489 263.992 69.9401 264.99 70.1223C266.76 70.5324 267.667 70.8058 267.667 71.8537C267.667 72.6739 266.714 73.3573 265.126 73.3573C263.629 73.3573 262.54 72.7194 262.041 71.5803L260.816 71.717C261.451 73.3573 262.948 74.2686 265.217 74.2686C267.531 74.2686 269.119 73.2206 269.119 71.8082C269.119 70.3501 267.94 69.7122 265.625 69.2566Z" fill="#B48348"/>
<path fill-rule="evenodd" clip-rule="evenodd" d="M269.618 66.3861H272.659V74.1319H273.974V66.3861H277.015V65.4749H269.618V66.3861Z" fill="#B48348"/>
<path fill-rule="evenodd" clip-rule="evenodd" d="M285.681 67.9353C285.681 66.3406 284.365 65.4749 281.779 65.4749H278.104V74.1319H279.419V70.3502H282.505L284.547 74.1319H285.863L283.73 70.1223C285.001 69.7123 285.681 68.9833 285.681 67.9353ZM281.643 69.4389H279.374V66.3406H281.688C283.412 66.3406 284.229 66.8873 284.229 67.9353C284.229 68.9833 283.412 69.4389 281.643 69.4389Z" fill="#B48348"/>
<path d="M288.812 65.4749H287.451V74.1319H288.812V65.4749Z" fill="#B48348"/>
<path fill-rule="evenodd" clip-rule="evenodd" d="M292.623 70.0312H296.934V69.1199H292.623V66.3861H298.159V65.4749H291.308V74.1319H298.295V73.2207H292.623V70.0312Z" fill="#B48348"/>
<path fill-rule="evenodd" clip-rule="evenodd" d="M303.695 69.2566C302.878 69.0288 302.061 68.8921 301.381 68.5731C300.972 68.3453 300.746 68.0264 300.746 67.6163C300.746 66.7962 301.562 66.2494 303.014 66.2494C304.376 66.2494 305.283 66.7506 305.691 67.753L306.917 67.4796C306.372 66.1127 305.011 65.3381 303.014 65.3381C300.836 65.3381 299.384 66.3861 299.384 67.7986C299.384 68.3453 299.657 68.8465 300.156 69.1655C301.063 69.8489 302.061 69.9401 303.105 70.1223C304.875 70.5324 305.782 70.8058 305.782 71.8537C305.782 72.6739 304.739 73.3573 303.241 73.3573C301.744 73.3573 300.655 72.7194 300.156 71.5803L298.84 71.717C299.475 73.3573 301.018 74.2686 303.241 74.2686C305.646 74.2686 307.143 73.2206 307.143 71.8082C307.143 70.3501 306.009 69.7122 303.695 69.2566Z" fill="#B48348"/>
<path fill-rule="evenodd" clip-rule="evenodd" d="M309.321 74.2685H310.138L309.185 75.9999H309.866L311.046 74.0862V72.7649H309.321V74.2685Z" fill="#B48348"/>
<path d="M319.712 65.4749H318.351V74.1319H319.712V65.4749Z" fill="#B48348"/>
<path fill-rule="evenodd" clip-rule="evenodd" d="M328.969 72.6283L323.887 65.4749H322.208V74.1319H323.206V66.4317L328.742 74.1319H330.058V65.4749H328.969V72.6283Z" fill="#B48348"/>
<path fill-rule="evenodd" clip-rule="evenodd" d="M336.274 73.3573C334.414 73.3573 333.279 72.036 333.279 69.8034C333.279 67.5707 334.505 66.2494 336.274 66.2494C337.635 66.2494 338.588 66.9329 338.951 68.2998L340.131 68.0719C339.632 66.295 338.271 65.3381 336.274 65.3381C335.094 65.3381 334.096 65.7026 333.325 66.3861C332.281 67.2062 331.827 68.3909 331.827 69.8034C331.827 72.6283 333.552 74.2686 336.274 74.2686C338.271 74.2686 339.632 73.3118 340.176 71.4436L338.951 71.2614C338.543 72.6739 337.681 73.3573 336.274 73.3573Z" fill="#B48348"/>
<path d="M343.761 72.6284H342.037V74.132H343.761V72.6284Z" fill="#B48348"/>
</g>
<defs>
<clipPath id="clip0_44_216">
<rect width="363" height="76" fill="white"/>
</clipPath>
</defs>
</svg>
