<svg width="241" height="96" viewBox="0 0 241 96" fill="none" xmlns="http://www.w3.org/2000/svg">
<g clip-path="url(#clip0_44_211)">
<path fill-rule="evenodd" clip-rule="evenodd" d="M240.965 96H0V0H241V96H240.965Z" fill="#B48348"/>
<path fill-rule="evenodd" clip-rule="evenodd" d="M4.82007 48C4.82007 71.5981 53.3003 91.2001 120.517 91.2001C187.734 91.2001 236.18 71.5981 236.18 48C236.18 24.402 187.7 4.80005 120.517 4.80005C53.3348 4.80005 4.82007 24.402 4.82007 48Z" fill="#FFBB6B"/>
<path d="M111.94 62.4113C112.7 63.4858 113.529 64.493 114.496 65.3998H88.4167C88.4167 64.3922 87.4151 62.3441 86.3097 60.7325C85.2044 59.1206 79.2286 50.2901 79.2286 50.2901V62.4113C79.2286 63.4186 79.2286 64.3922 79.7468 65.3998H58.0201C58.5383 64.3922 58.5383 63.4186 58.5383 62.4113V33.6019C58.5383 32.5946 58.5383 31.621 58.0201 30.6137H79.7468C79.2286 31.621 79.2286 32.5946 79.2286 33.6019V46.1935C79.2286 46.1935 86.1716 37.3963 87.7605 35.3479C88.9693 33.8035 90.4549 31.6207 90.4549 30.6137H113.114C111.56 31.621 109.833 33.4342 108.416 35.113C107.173 36.5904 100.126 44.951 100.126 44.951C100.126 44.951 110.558 60.4303 111.94 62.4113ZM118.779 33.6019V62.4113C118.779 63.4186 118.779 64.3922 118.261 65.3998H160.194V55.7294C159.158 56.233 158.156 56.233 157.12 56.233H139.469V51.6665H156.429V44.3465H139.469V39.7466H157.12C158.157 39.7466 159.158 39.7466 160.194 40.2168V30.5801H118.261C118.779 31.621 118.779 32.5946 118.779 33.6019ZM218.294 62.4113C218.639 63.5194 219.226 64.5266 219.986 65.3998H197.258C197.361 64.3922 196.981 63.4186 196.567 62.4113C196.567 62.4113 196.221 61.6054 195.738 60.4303L195.531 59.9266H182.439L182.232 60.4637C182.232 60.4637 181.852 61.4376 181.507 62.4449C181.161 63.4522 180.781 64.4258 180.92 65.4331H162.992C163.725 64.5524 164.276 63.5372 164.616 62.4449L175.358 33.6355C175.738 32.6282 176.118 31.6546 175.98 30.6473H206.273C205.997 31.6546 206.549 32.6282 206.929 33.6355C207.827 35.8181 217.533 60.4637 218.294 62.4113ZM192.664 52.5732L189.486 44.5145C189.209 43.776 188.968 43.0037 188.795 42.2314C188.657 43.0094 188.449 43.7735 188.173 44.5145C188.07 44.8505 186.722 48.3761 185.168 52.5732H192.664ZM47.7265 30.6137H24.1001C24.6182 31.621 24.6182 32.5946 24.6182 33.6019V62.4113C24.6182 63.4186 24.6182 64.3922 24.1001 65.3998H47.7265C47.2084 64.3922 47.2084 63.4186 47.2084 62.4113V33.6019C47.2084 32.5946 47.2084 31.621 47.7265 30.6137ZM211.04 33.367C210.936 30.9158 212.905 28.8677 215.427 28.8005H215.738C218.294 28.7669 220.401 30.7142 220.435 33.199V33.367C220.504 35.8853 218.466 38.0006 215.841 38.0678C213.25 38.135 211.074 36.1538 211.005 33.6019C211.04 33.5347 211.04 33.4342 211.04 33.367ZM211.972 33.367C211.972 35.3815 213.665 37.027 215.738 37.027C217.81 37.027 219.502 35.3815 219.502 33.367C219.502 31.3524 217.81 29.707 215.738 29.707C213.734 29.6398 212.042 31.1508 211.972 33.0982V33.367ZM214.805 36.0866H213.976V30.5801H216.083C217.085 30.6137 217.845 31.3858 217.845 32.3597C217.845 33.0312 217.464 33.6355 216.843 33.9713L218.052 36.0866H217.119L216.014 34.1393H214.805V36.0866ZM214.805 33.367H215.945C216.497 33.4006 216.981 32.9974 216.981 32.4602C216.981 31.9231 216.601 31.453 216.048 31.453H214.805V33.367Z" fill="#B48348"/>
</g>
<defs>
<clipPath id="clip0_44_211">
<rect width="241" height="96" fill="white"/>
</clipPath>
</defs>
</svg>
