<svg width="167" height="49" viewBox="0 0 167 49" fill="none" xmlns="http://www.w3.org/2000/svg">
<path fill-rule="evenodd" clip-rule="evenodd" d="M0.985352 0.701674H10.9821V20.759L26.5894 0.573975H38.2622L21.1703 21.4688L39.7449 47.2006H27.2974L14.2968 29.3331L10.9821 29.2457V47.2006H0.985352V0.701674Z" fill="#B48348"/>
<path fill-rule="evenodd" clip-rule="evenodd" d="M58.5759 47.2006C58.2539 45.2014 58.2538 43.7178 58.2538 42.7515C54.6424 47.9743 50.3211 47.9743 48.5154 47.9743C43.8072 47.9743 41.6784 46.6203 40.3882 45.3948C38.4539 43.4595 37.5505 40.8162 37.5505 38.2368C37.5505 35.6564 38.4539 30.8843 44.4513 28.1114C48.4506 26.3057 54.1898 26.3057 57.3496 26.3057C57.3496 24.177 57.2848 23.1459 56.8979 21.9834C56.0594 19.5974 53.5438 19.2753 52.6414 19.2753C51.2883 19.2753 49.8685 19.8566 49.0299 21.082C48.321 22.1778 48.321 23.2098 48.321 23.9835H38.9703C39.0351 22.2426 39.2276 18.7589 42.6465 16.309C45.6138 14.1802 49.4178 13.6657 52.5146 13.6657C55.2218 13.6657 60.8972 14.1173 64.1217 17.8574C66.3143 20.5007 66.3791 24.3713 66.3791 25.8531L66.4439 38.9448C66.4439 41.7177 66.6373 44.4915 67.2177 47.1996L58.5759 47.2006ZM46.8392 37.14C46.8392 39.3326 48.3219 41.7834 51.4817 41.7834C53.2236 41.7834 54.6424 40.9449 55.5448 39.9138C57.2219 37.8499 57.3515 35.3343 57.3515 31.8506C51.2244 31.336 46.8392 33.2703 46.8392 37.14ZM70.0563 22.6295C70.0563 21.082 69.799 16.3728 69.6056 14.5033H78.5703L78.7628 20.758C79.9882 17.9851 82.9536 14.3587 86.8777 14.4394V23.0163C80.5009 23.0163 79.6013 27.0794 79.6013 31.1425V47.2006H70.0563V22.6295ZM108.17 46.7489C105.076 47.5874 102.303 47.7818 100.755 47.7818C91.1455 47.7818 91.1455 41.7186 91.1455 39.0105V21.1468H87.8684V14.8272H91.1455V8.44195L100.626 4.96009V14.8272H105.388V21.1468H100.626V35.8507C100.692 38.8161 100.692 40.6866 104.947 40.6866C106.367 40.6866 107.012 40.6228 108.172 40.4932V46.7489H108.17ZM119.09 33.3351C119.09 35.4639 119.09 42.0416 126.497 42.0416C129.159 42.0416 131.818 41.1383 132.826 37.5269H142.538C142.393 39.0734 142.033 41.8473 139.084 44.6202C136.423 47.1358 131.674 48.426 126.352 48.426C123.26 48.426 117.36 47.9095 113.548 44.3629C110.24 41.2669 108.873 36.8818 108.873 31.6581C108.873 26.3695 110.309 20.05 116.426 16.2442C119.229 14.5681 122.683 13.5361 126.639 13.5361C131.817 13.5361 138.003 15.3418 141.311 21.4041C143.757 25.8531 143.613 30.6261 143.47 33.3351H119.09ZM132.612 27.3367C132.612 25.8531 132.468 20.0491 126.281 20.0491C121.605 20.0491 119.664 23.5319 119.448 27.3367H132.612ZM144.955 0.573975H154.501V47.2006H144.955V0.573975ZM156.471 0.573975H166.015V47.2006H156.471V0.573975Z" fill="#B48348"/>
</svg>
