<svg width="150" height="96" viewBox="0 0 150 96" fill="none" xmlns="http://www.w3.org/2000/svg">
<g clip-path="url(#clip0_44_250)">
<path fill-rule="evenodd" clip-rule="evenodd" d="M147.698 0.738553C142.897 0.738553 141.528 1.82629 141.339 5.79801V90.0824C141.528 94.0142 142.897 95.1219 147.698 95.1219H149.891V95.8404H124.861V95.1219H127.054C132.401 95.1219 133.333 93.7149 133.433 89.5136V49.7664H86.8453V88.8949C86.8453 93.6749 87.6588 95.1818 93.1449 95.1818H96.3394V95.9003H76.4882C62.9068 95.9003 57.4703 84.2047 52.2223 72.8982C48.9485 65.813 45.8632 59.1768 40.9822 55.1552C36.637 51.6026 30.506 49.7764 22.8175 49.7764C22.8175 49.7764 18.7699 49.7764 16.2402 49.7764V88.855C16.2402 93.4853 17.0834 95.0321 22.0735 95.1319C22.2124 95.1319 25.4267 95.1319 25.883 95.1319V95.8404H0.0893555V95.1219H2.31158C6.81555 95.0421 8.08539 93.9244 8.24412 89.8928V7.01548C8.24412 2.25539 7.34134 0.768491 1.85523 0.768491H0.0893555V0.0300293H33.5616C41.1409 0.0599669 65.8632 1.88616 65.8632 24.539C65.8632 33.6101 62.1231 40.4458 54.8314 44.7668C47.5398 49.0878 38.5517 49.7764 33.8294 49.7764H30.6747C52.8671 52.9298 58.3532 64.9049 67.3314 84.3943L67.9961 85.8612C70.506 91.4296 72.1826 95.1119 78.3235 95.1119H78.9088V7.01548C78.8989 1.77639 77.3909 0.808408 72.8969 0.808408H70.754V0.0599669H95.8532V0.77847H92.7084C87.6588 0.868283 86.8155 2.41506 86.8155 7.05539V49.0778H133.452V6.37681C133.343 1.57681 131.766 0.768491 127.083 0.768491H124.881V0.0400085H149.911V0.768491H147.718M58.006 24.6986C58.006 9.5003 47.8175 0.788449 30.0596 0.788449H21.9346C17.0933 0.918179 16.26 2.43502 16.26 6.94562V49.0778H33.7203C36.9743 49.1477 40.2084 48.539 43.2342 47.3115C46.2501 46.0841 48.9882 44.2479 51.2897 41.9128C55.6647 37.2824 58.0755 31.1053 57.9961 24.6986H58.006Z" fill="#B48348"/>
</g>
<defs>
<clipPath id="clip0_44_250">
<rect width="150" height="96" fill="white"/>
</clipPath>
</defs>
</svg>
