<svg width="82" height="82" viewBox="0 0 82 82" fill="none" xmlns="http://www.w3.org/2000/svg">
<path d="M40.9911 2.55249C25.454 2.55249 12.8062 15.2003 12.8062 30.7375C12.8061 58.0761 39.4022 78.86 39.4022 78.86C39.8562 79.2223 40.4198 79.4195 41.0006 79.4195C41.5814 79.4195 42.145 79.2223 42.599 78.86C42.599 78.86 69.1951 58.0761 69.195 30.7375C69.195 15.2003 56.5283 2.55249 40.9911 2.55249ZM40.9911 7.67875C53.7585 7.67875 64.0687 17.9701 64.0688 30.7375C64.0688 53.1027 43.8167 70.7729 41.01 73.1663C38.2167 70.7849 17.9324 53.1115 17.9324 30.7375C17.9324 17.9701 28.2237 7.67875 40.9911 7.67875Z" fill="#FFB052"/>
<path d="M40.9913 17.9314C33.9455 17.9314 28.1851 23.6918 28.1851 30.7376C28.185 37.7835 33.9454 43.5627 40.9913 43.5627C48.0371 43.5627 53.8164 37.7835 53.8164 30.7376C53.8163 23.6918 48.037 17.9314 40.9913 17.9314ZM40.9913 23.0577C45.2673 23.0577 48.6901 26.4616 48.6901 30.7376C48.6901 35.0136 45.2673 38.4364 40.9913 38.4364C36.7152 38.4364 33.3113 35.0136 33.3113 30.7376C33.3113 26.4616 36.7152 23.0577 40.9913 23.0577Z" fill="#FFB052"/>
</svg>
