<svg width="82" height="82" viewBox="0 0 82 82" fill="none" xmlns="http://www.w3.org/2000/svg">
<path d="M75.0641 62.6274C75.0641 63.8574 74.7907 65.1216 74.2099 66.3516C73.6291 67.5816 72.8774 68.7433 71.8866 69.8366C70.2124 71.6816 68.3674 73.0141 66.2832 73.8683C64.2332 74.7224 62.0124 75.1666 59.6208 75.1666C56.1358 75.1666 52.4116 74.3466 48.4824 72.6724C44.5532 70.9983 40.6241 68.7433 36.7291 65.9074C32.7999 63.0374 29.0758 59.8599 25.5224 56.3407C22.0033 52.7874 18.8258 49.0633 15.9899 45.1683C13.1883 41.2733 10.9333 37.3783 9.29325 33.5174C7.65325 29.6224 6.83325 25.8983 6.83325 22.3449C6.83325 20.0216 7.24325 17.8008 8.06325 15.7508C8.88325 13.6666 10.1816 11.7533 11.9924 10.0449C14.1791 7.89242 16.5708 6.83325 19.0991 6.83325C20.0558 6.83325 21.0124 7.03825 21.8666 7.44825C22.7549 7.85825 23.5408 8.47325 24.1558 9.36159L32.0824 20.5341C32.6974 21.3883 33.1416 22.1741 33.4491 22.9258C33.7566 23.6433 33.9274 24.3608 33.9274 25.0099C33.9274 25.8299 33.6883 26.6499 33.2099 27.4358C32.7658 28.2216 32.1166 29.0416 31.2966 29.8616L28.6999 32.5607C28.3241 32.9366 28.1533 33.3808 28.1533 33.9274C28.1533 34.2008 28.1874 34.4399 28.2558 34.7133C28.3583 34.9866 28.4608 35.1916 28.5291 35.3966C29.1441 36.5241 30.2032 37.9933 31.7066 39.7699C33.2441 41.5466 34.8841 43.3574 36.6607 45.1683C38.5057 46.9791 40.2824 48.6532 42.0932 50.1907C43.8699 51.6941 45.3391 52.7191 46.5007 53.3341C46.6716 53.4024 46.8766 53.5049 47.1157 53.6074C47.3891 53.7099 47.6624 53.7441 47.9699 53.7441C48.5507 53.7441 48.9949 53.5391 49.3707 53.1633L51.9674 50.6008C52.8216 49.7466 53.6416 49.0974 54.4274 48.6874C55.2133 48.2091 55.9991 47.9699 56.8532 47.9699C57.5024 47.9699 58.1857 48.1066 58.9374 48.4141C59.6891 48.7216 60.4749 49.1658 61.3291 49.7466L72.6382 57.7757C73.5266 58.3907 74.1416 59.1082 74.5174 59.9624C74.8591 60.8166 75.0641 61.6707 75.0641 62.6274Z" stroke="#FFB052" stroke-width="5" stroke-miterlimit="10"/>
</svg>
