<svg width="73" height="73" viewBox="0 0 73 73" fill="none" xmlns="http://www.w3.org/2000/svg">
<g clip-path="url(#clip0_36_133)">
<path d="M18.0915 30.2096H19.1393V38.819C19.1393 41.4139 21.2504 43.5248 23.8451 43.5248H28.0074C28.6507 43.5248 29.1723 43.0033 29.1723 42.3599V33.7043C29.1723 33.061 28.6507 32.5394 28.0074 32.5394C27.364 32.5394 26.8425 33.061 26.8425 33.7043V41.195H23.8451C22.535 41.195 21.4691 40.1291 21.4691 38.819V30.2096H32.5133L57.0455 37.2092C57.1507 37.2392 57.2582 37.254 57.365 37.254C57.6154 37.254 57.8624 37.1732 58.0667 37.019C58.3584 36.7989 58.5299 36.4545 58.5299 36.0891V9.9192C58.5299 9.55373 58.3584 9.20954 58.0667 8.9893C57.7749 8.76921 57.3969 8.69839 57.0455 8.79903L32.5133 15.7985H18.0915C16.0947 15.7985 14.4702 17.423 14.4702 19.4198V26.588C14.4702 28.5851 16.0947 30.2096 18.0915 30.2096ZM56.2001 34.5452L33.841 28.1656V17.8425L56.2001 11.4629V34.5452ZM16.8 19.4199C16.8 18.7078 17.3793 18.1284 18.0915 18.1284H31.5114V27.8798H18.0915C17.3793 27.8798 16.8 27.3005 16.8 26.5884V19.4199Z" fill="#FFB052"/>
<path d="M70.229 2.54175H2.77105C1.24302 2.54175 0 3.78477 0 5.3128V56.4446C0 57.9725 1.24302 59.2157 2.77105 59.2157H28.2134V68.1288H17.2263C16.583 68.1288 16.0614 68.6504 16.0614 69.2937C16.0614 69.9371 16.583 70.4586 17.2263 70.4586H55.7737C56.417 70.4586 56.9386 69.9371 56.9386 69.2937C56.9386 68.6504 56.417 68.1288 55.7737 68.1288H44.7866V59.2155H70.229C71.7568 59.2155 73 57.9725 73 56.4445V5.3128C73 3.78477 71.757 2.54175 70.229 2.54175ZM42.4568 68.1287H30.5432V59.2155H42.4568V68.1287ZM70.6702 56.4445C70.6702 56.6837 70.4681 56.8857 70.229 56.8857H2.77105C2.53186 56.8857 2.32979 56.6837 2.32979 56.4445V5.3128C2.32979 5.07361 2.53186 4.87154 2.77105 4.87154H70.229C70.4681 4.87154 70.6702 5.07361 70.6702 5.3128V56.4445Z" fill="#FFB052"/>
<path d="M67.0165 47.4077H5.98325C5.33992 47.4077 4.81836 47.9293 4.81836 48.5726C4.81836 49.2159 5.33992 49.7375 5.98325 49.7375H67.0165C67.6599 49.7375 68.1814 49.2159 68.1814 48.5726C68.1814 47.9293 67.6599 47.4077 67.0165 47.4077Z" fill="#FFB052"/>
</g>
<defs>
<clipPath id="clip0_36_133">
<rect width="73" height="73" fill="white"/>
</clipPath>
</defs>
</svg>
