<svg width="32" height="28" viewBox="0 0 32 28" fill="none" xmlns="http://www.w3.org/2000/svg">
<path d="M31.6282 1.11097L26.6297 26.3219C26.6297 26.3219 25.9297 28.0719 24.0047 27.2297L12.4657 18.3813L8.26565 16.3578L1.20003 13.9844C1.20003 13.9844 0.117214 13.6016 0.00783923 12.7594C-0.101536 11.9172 1.23284 11.4688 1.23284 11.4688L29.3203 0.454723C29.3203 0.443785 31.6282 -0.573402 31.6282 1.11097Z" fill="#FFB052"/>
<path d="M11.5687 26.0376C11.5687 26.0376 11.2297 26.0048 10.8141 24.6814C10.3984 23.358 8.26562 16.358 8.26562 16.358L25.2297 5.58452C25.2297 5.58452 26.2141 4.9939 26.1703 5.58452C26.1703 5.58452 26.3453 5.6939 25.8203 6.17515C25.2953 6.66733 12.4984 18.1736 12.4984 18.1736" fill="#FFCC90"/>
<path d="M16.8845 21.7719L12.3236 25.9391C12.3236 25.9391 11.9626 26.2125 11.5798 26.0375L12.4548 18.3047" fill="#FFB052"/>
</svg>
