<svg width="46" height="27" viewBox="0 0 46 27" fill="none" xmlns="http://www.w3.org/2000/svg">
<path fill-rule="evenodd" clip-rule="evenodd" d="M22.3947 25.9541H25.1282C25.1282 25.9541 25.9577 25.8589 26.3793 25.4102C26.7737 24.9886 26.7601 24.2134 26.7601 24.2134C26.7601 24.2134 26.7057 20.5417 28.4056 20.0113C30.0783 19.4809 32.2405 23.5471 34.5252 25.1246C36.2523 26.3077 37.5578 26.0493 37.5578 26.0493L43.6639 25.9677C43.6639 25.9677 46.8597 25.7774 45.3366 23.2615C45.2142 23.0575 44.4526 21.3984 40.7944 18.0122C36.9731 14.4628 37.4762 15.034 42.0864 8.88715C44.9014 5.14737 46.0165 2.8627 45.6629 1.88356C45.323 0.945216 43.2695 1.2036 43.2695 1.2036L36.3883 1.2444C36.3883 1.2444 35.8851 1.1764 35.5043 1.39399C35.1372 1.61158 34.8924 2.12835 34.8924 2.12835C34.8924 2.12835 33.8044 5.02497 32.3493 7.48643C29.2895 12.6813 28.0656 12.9533 27.5624 12.6405C26.3929 11.879 26.6921 9.6215 26.6921 8.0032C26.6921 2.9715 27.4536 0.86362 25.2098 0.319652C24.4618 0.142863 23.9178 0.0204696 22.0003 0.0068704C19.5525 -0.020328 17.4718 0.00687076 16.2887 0.591636C15.5135 0.972414 14.9016 1.82916 15.2687 1.86996C15.7175 1.92436 16.7511 2.15554 17.295 2.8899C18.0022 3.84184 17.975 6.00412 17.975 6.00412C17.975 6.00412 18.383 11.9334 17.023 12.6677C16.0983 13.1709 14.82 12.1374 12.1001 7.43203C10.6994 5.01138 9.65227 2.34593 9.65227 2.34593C9.65227 2.34593 9.44828 1.84276 9.08111 1.58438C8.63233 1.258 8.02037 1.1628 8.02037 1.1628L1.49275 1.2036C1.49275 1.2036 0.513612 1.2308 0.146433 1.65237C-0.166348 2.03315 0.119235 2.8219 0.119235 2.8219C0.119235 2.8219 5.23253 14.7892 11.0258 20.8136C16.3703 26.3213 22.3947 25.9541 22.3947 25.9541Z" fill="#FFB052"/>
</svg>
