<svg width="46" height="46" viewBox="0 0 46 46" fill="none" xmlns="http://www.w3.org/2000/svg">
<path fill-rule="evenodd" clip-rule="evenodd" d="M34.1736 10.6136C31.3216 7.757 27.522 6.1838 23.4786 6.1792C15.148 6.1792 8.36297 12.9596 8.36297 21.2948C8.36297 23.9582 9.05757 26.5618 10.3824 28.8526L8.23877 36.6864L16.252 34.5842C18.46 35.7894 20.944 36.4242 23.474 36.4242H23.4786C31.8092 36.4242 38.5896 29.6438 38.5942 21.3086C38.5988 17.2698 37.0302 13.4702 34.1736 10.6136ZM23.4832 33.8712H23.4786C21.2246 33.8712 19.012 33.264 17.0846 32.1186L16.6246 31.8472L11.8682 33.0938L13.1378 28.457L12.8388 27.9832C11.583 25.9822 10.916 23.673 10.916 21.2948C10.9206 14.3672 16.5556 8.7322 23.4878 8.7322C26.8458 8.7322 29.9968 10.0432 32.3704 12.4168C34.744 14.7904 36.0504 17.9506 36.0458 21.304C36.0458 28.2362 30.4062 33.8712 23.4832 33.8712ZM30.374 24.4596C29.9968 24.271 28.1384 23.3556 27.7934 23.2314C27.4484 23.1072 27.1954 23.0428 26.9424 23.42C26.6894 23.7972 25.9672 24.6482 25.7464 24.9012C25.5256 25.1542 25.3048 25.1864 24.9276 24.9978C24.5504 24.8092 23.3314 24.409 21.8916 23.121C20.7692 22.1182 20.0102 20.8808 19.7894 20.5036C19.5686 20.1264 19.7664 19.9194 19.955 19.7308C20.1252 19.5606 20.3322 19.2892 20.5208 19.0684C20.7094 18.8476 20.7738 18.6912 20.898 18.4382C21.0222 18.1852 20.9624 17.9644 20.8658 17.7758C20.7692 17.5872 20.0148 15.7288 19.702 14.9698C19.3938 14.2338 19.0856 14.335 18.851 14.3212C18.6302 14.312 18.3772 14.3074 18.1288 14.3074C17.8758 14.3074 17.4664 14.404 17.1214 14.7812C16.7764 15.1584 15.8012 16.0738 15.8012 17.9322C15.8012 19.7906 17.1536 21.5892 17.3422 21.8376C17.5308 22.0906 20.0056 25.904 23.796 27.5416C24.6976 27.9326 25.4014 28.1626 25.9488 28.3374C26.855 28.6272 27.6784 28.5858 28.327 28.4892C29.0538 28.3788 30.5626 27.5738 30.8754 26.6952C31.1882 25.812 31.1882 25.0576 31.0962 24.9012C31.0042 24.7448 30.7512 24.6528 30.374 24.4596Z" fill="#FFB052"/>
</svg>
