<svg width="139" height="140" viewBox="0 0 139 140" fill="none" xmlns="http://www.w3.org/2000/svg">
<g clip-path="url(#clip0_36_102)">
<path d="M94.6686 16.4445V30.3171C90.9695 33.4879 88.3578 37.9335 88.3578 43.1586C88.3578 43.6903 88.4145 44.2081 88.4626 44.73H66.2701V54.1585C66.2701 55.379 67.1504 56.2264 67.5828 57.3013H50.4932C50.075 57.2954 49.6599 57.3724 49.2719 57.5277C48.8839 57.683 48.5307 57.9135 48.233 58.206C47.9352 58.4984 47.6987 58.8468 47.5373 59.2311C47.3759 59.6153 47.2928 60.0277 47.2928 60.4442C47.2928 60.8607 47.3759 61.273 47.5373 61.6573C47.6987 62.0415 47.9352 62.39 48.233 62.6824C48.5307 62.9748 48.8839 63.2054 49.2719 63.3607C49.6599 63.516 50.075 63.5929 50.4932 63.587H53.6486V69.8727V73.0155V76.1584V126.444H72.5809V76.1584H113.601V126.444H132.533V76.1584V69.8727V63.587H135.689C136.107 63.5929 136.522 63.516 136.91 63.3607C137.298 63.2054 137.651 62.9748 137.949 62.6824C138.247 62.39 138.483 62.0415 138.644 61.6573C138.806 61.273 138.889 60.8607 138.889 60.4442C138.889 60.0277 138.806 59.6153 138.644 59.2311C138.483 58.8468 138.247 58.4984 137.949 58.206C137.651 57.9135 137.298 57.683 136.91 57.5277C136.522 57.3724 136.107 57.2954 135.689 57.3013H132.533H117.342C117.762 56.1465 118.387 55.033 119.221 54.005C121.62 51.0445 123.067 47.2538 123.067 43.1586C123.067 37.9335 120.455 33.4879 116.756 30.3171V16.4445H94.6686ZM100.979 22.7301H110.445V33.0794L111.844 34.0186C114.805 35.9934 116.756 39.3235 116.756 43.1586C116.756 45.7891 115.843 48.166 114.31 50.0581C112.633 52.125 111.621 54.6411 111.043 57.3013H99.6666C100.099 56.2264 100.979 55.379 100.979 54.1585V44.73H94.7795C94.7063 44.218 94.6686 43.6954 94.6686 43.1586C94.6686 39.3235 96.6198 35.9934 99.5804 34.0186L100.979 33.0794V22.7301ZM3.25484 44.687C2.78786 44.6724 2.32345 44.7612 1.89513 44.9471C1.46682 45.133 1.08528 45.4113 0.778082 45.7619C0.470881 46.1125 0.245676 46.5267 0.118727 46.9746C-0.00822265 47.4224 -0.0337486 47.8928 0.0439921 48.3516L4.70928 78.5462C5.61077 84.3886 9.7222 89.0315 15.069 90.9211L6.42872 122.472C6.20806 123.276 6.31719 124.135 6.73211 124.859C7.14703 125.583 7.83374 126.113 8.64118 126.333C9.44862 126.553 10.3106 126.444 11.0376 126.031C11.7646 125.618 12.297 124.934 12.5176 124.13L21.349 91.8725H32.3066L41.1379 124.13C41.3586 124.934 41.891 125.618 42.6179 126.031C43.3449 126.444 44.2069 126.553 45.0144 126.333C45.8218 126.113 46.5085 125.583 46.9235 124.859C47.3384 124.135 47.4475 123.276 47.2269 122.472L38.8454 91.8725H41.027C41.4451 91.8784 41.8603 91.8015 42.2483 91.6462C42.6363 91.4909 42.9895 91.2603 43.2872 90.9679C43.585 90.6755 43.8214 90.327 43.9828 89.9428C44.1442 89.5586 44.2273 89.1462 44.2273 88.7297C44.2273 88.3132 44.1442 87.9008 43.9828 87.5166C43.8214 87.1324 43.585 86.7839 43.2872 86.4915C42.9895 86.1991 42.6363 85.9685 42.2483 85.8132C41.8603 85.6579 41.4451 85.581 41.027 85.5869H35.1969C34.8622 85.5328 34.521 85.5328 34.1862 85.5869H20.3013C15.6032 85.5869 11.6596 82.2188 10.9461 77.5947V77.5886L6.28081 47.394C6.17791 46.6599 5.81779 45.9855 5.26409 45.4902C4.71038 44.9949 3.99873 44.7104 3.25484 44.687ZM72.5809 51.0157H94.6686V54.1585C94.6686 55.9343 93.2961 57.3013 91.5132 57.3013H75.7362C73.9534 57.3013 72.5809 55.9343 72.5809 54.1585V51.0157ZM59.9593 63.587H75.7362H97.8239H116.756H126.222V69.8727H113.601H72.5809H59.9593V63.587ZM59.9593 76.1584H66.2701V120.158H59.9593V76.1584ZM119.912 76.1584H126.222V120.158H119.912V76.1584Z" fill="white"/>
</g>
<defs>
<clipPath id="clip0_36_102">
<rect width="138.889" height="138.889" fill="white" transform="translate(0 0.888916)"/>
</clipPath>
</defs>
</svg>
