<svg width="139" height="140" viewBox="0 0 139 140" fill="none" xmlns="http://www.w3.org/2000/svg">
<g clip-path="url(#clip0_36_107)">
<path d="M4.76978 89.989H133.972V84.7106C133.972 83.4333 133.723 82.2466 133.283 81.1841C132.808 80.0538 132.107 79.0479 131.237 78.1776C130.706 77.6463 130.107 77.1603 129.462 76.7308C128.807 76.29 128.106 75.9057 127.371 75.5779C125.393 75.1484 123.427 74.7415 121.471 74.3572C119.505 73.9729 117.527 73.6112 115.537 73.2721C115.447 73.2608 115.379 73.2495 115.289 73.2269C114.283 73.0574 113.322 72.8991 112.406 72.7522C111.491 72.6053 110.519 72.4583 109.502 72.3001H109.479C102.562 71.4185 95.667 70.7403 88.7835 70.2882C81.8888 69.8361 75.028 69.61 68.2124 69.5987C64.166 69.5987 60.1309 69.6665 56.0958 69.8248C52.0833 69.983 48.0482 70.2091 44.0131 70.5255H43.9905C40.2154 70.8759 36.4515 71.3167 32.6764 71.8254C28.9126 72.334 25.1374 72.933 21.3397 73.5999L20.9215 73.7016C20.8424 73.7242 20.7633 73.7355 20.6954 73.7355C20.6276 73.7468 20.5598 73.7468 20.492 73.7468C18.7174 74.0633 16.8977 74.4137 15.0214 74.7867C13.2017 75.1484 11.3819 75.5327 9.57348 75.9283C9.12136 76.1769 8.69186 76.4595 8.28496 76.7534C7.87806 77.0586 7.48246 77.3864 7.13207 77.7367C6.37478 78.494 5.77573 79.3643 5.36883 80.3364C4.98454 81.2519 4.76978 82.2692 4.76978 83.3768V89.989ZM16.05 13.8533H121.155C122.522 13.8533 123.834 14.1245 125.032 14.6219C126.275 15.1418 127.394 15.8991 128.332 16.8259C129.27 17.764 130.027 18.883 130.536 20.1263C131.033 21.3244 131.305 22.6356 131.305 24.0032V72.2549C131.881 72.594 132.446 72.967 132.966 73.3739C133.554 73.826 134.108 74.3007 134.616 74.8093C135.928 76.1204 136.99 77.6463 137.702 79.3643C138.38 80.9806 138.753 82.7778 138.753 84.7219V91.6053C138.787 91.7183 138.821 91.8313 138.844 91.9444V91.967C138.866 92.1139 138.878 92.2495 138.878 92.3852C138.878 92.5321 138.866 92.6791 138.832 92.826C138.81 92.939 138.776 93.052 138.742 93.1651V124.429C138.742 125.084 138.471 125.683 138.041 126.113C137.612 126.542 137.013 126.814 136.357 126.814H131.44C130.886 126.814 130.378 126.621 129.971 126.305C129.564 125.988 129.259 125.536 129.135 125.016C128.23 122.417 127.315 120.36 126.331 118.755C125.359 117.172 124.32 116.042 123.121 115.239C121.912 114.437 120.465 113.928 118.713 113.623C116.928 113.307 114.848 113.205 112.372 113.216L22.2213 113.329H22.1761C20.4016 113.295 18.9435 113.521 17.7228 113.996C16.5134 114.471 15.5301 115.183 14.7163 116.098C13.8007 117.116 13.0321 118.416 12.3314 119.93C11.6193 121.479 10.975 123.242 10.3308 125.175C10.1725 125.672 9.85605 126.068 9.46045 126.35C9.08746 126.621 8.63534 126.78 8.17193 126.802C8.13802 126.814 8.10411 126.814 8.0702 126.814H2.38489C1.72933 126.814 1.13028 126.542 0.700774 126.113C0.271267 125.683 0 125.084 0 124.429V83.3881C0 81.6136 0.339084 79.986 0.949436 78.5166C1.605 76.9568 2.56574 75.5666 3.76383 74.3685C4.10292 74.0294 4.47591 73.6903 4.87151 73.3739C5.21059 73.1026 5.54968 72.8426 5.91137 72.6053V23.9015C5.91137 22.5338 6.18263 21.234 6.67996 20.0585C7.19989 18.8265 7.95718 17.7188 8.89531 16.792C9.83344 15.8652 10.9524 15.1305 12.1844 14.6219C13.3825 14.1245 14.6823 13.8533 16.05 13.8533ZM121.155 18.6231H16.05C15.3153 18.6231 14.6145 18.77 13.9703 19.03C13.3034 19.3012 12.7157 19.6968 12.2183 20.1828C11.7323 20.6576 11.3367 21.2453 11.0654 21.8783C10.8168 22.4999 10.6812 23.1781 10.6812 23.9015V70.3108C11.0202 70.1978 11.3593 70.1073 11.7097 70.0169C12.2635 69.87 12.8174 69.7457 13.3712 69.6552C14.1398 69.5196 14.9762 69.3727 15.8804 69.2144C16.5586 69.1014 17.282 68.9771 18.028 68.864V57.0187C18.028 55.2328 18.3897 53.5261 19.0339 51.9663C19.7121 50.3387 20.6954 48.8807 21.9161 47.66C23.1368 46.4393 24.5949 45.4559 26.2225 44.7778C27.7823 44.1335 29.489 43.7718 31.2749 43.7718H53.677C55.4629 43.7718 57.1696 44.1335 58.7294 44.7778C60.357 45.4559 61.815 46.4393 63.0358 47.66C64.2565 48.8807 65.2398 50.3387 65.918 51.9663C66.5622 53.5261 66.9239 55.2328 66.9239 57.0187V64.5803C67.7151 64.569 68.5063 64.569 69.3088 64.569V57.0187C69.3088 55.2328 69.6705 53.5261 70.3148 51.9663C70.9929 50.3387 71.9763 48.8807 73.197 47.66C74.4177 46.4393 75.8757 45.4559 77.5033 44.7778C79.0631 44.1335 80.7699 43.7718 82.5557 43.7718H104.958C106.744 43.7718 108.45 44.1335 110.01 44.7778C111.638 45.4559 113.096 46.4393 114.317 47.66C115.537 48.8807 116.521 50.3387 117.199 51.9663C117.843 53.5261 118.205 55.2328 118.205 57.0187V68.7058C119.052 68.8301 119.957 68.9771 120.929 69.1353C122.002 69.3048 123.031 69.4744 124.026 69.6439C124.534 69.7344 125.054 69.8361 125.574 69.9604C125.902 70.0395 126.218 70.1186 126.524 70.2091V24.0032C126.524 23.2798 126.377 22.5903 126.117 21.9574C125.845 21.3018 125.439 20.7141 124.941 20.2054C124.444 19.7081 123.845 19.3012 123.201 19.03C122.568 18.77 121.878 18.6231 121.155 18.6231ZM48.8394 65.3489C51.1113 65.1793 53.3945 65.0324 55.7115 64.9194C57.8478 64.8063 60.0066 64.7272 62.1654 64.6707V57.0187C62.1654 55.8771 61.9394 54.7807 61.5212 53.7861C61.0917 52.7462 60.4587 51.8194 59.6675 51.0282C58.8876 50.2483 57.9495 49.6154 56.9096 49.1745C55.915 48.7563 54.8186 48.5303 53.677 48.5303H31.2749C30.1333 48.5303 29.0369 48.7563 28.0423 49.1745C27.0024 49.604 26.0756 50.237 25.2844 51.0282C24.5045 51.8081 23.8715 52.7462 23.4307 53.7861C23.0125 54.7807 22.7865 55.8771 22.7865 57.0187V68.1067C24.6175 67.8355 26.4712 67.5868 28.37 67.3382C30.4159 67.0782 32.4504 66.8408 34.4623 66.6148C35.2421 66.5244 36.0786 66.4226 36.9489 66.3322C37.7627 66.2418 38.6104 66.1627 39.5146 66.0722C41.0518 65.9253 42.5777 65.7897 44.0809 65.6653C45.6294 65.5636 47.2118 65.4506 48.8394 65.3489ZM74.0786 64.6029C75.4462 64.6255 76.8139 64.6594 78.1815 64.7046C79.6961 64.7498 81.2107 64.8176 82.7139 64.8854H82.7252C85.2006 64.9759 87.6194 65.0889 89.9703 65.2245C92.3213 65.3602 94.6158 65.5297 96.8085 65.7219C99.9959 66.0044 103.082 66.3435 106.009 66.7391C108.631 67.1008 111.118 67.5077 113.446 67.9598V57.0187C113.446 55.8771 113.22 54.7807 112.802 53.7861C112.373 52.7462 111.74 51.8194 110.948 51.0282C110.168 50.2483 109.23 49.6154 108.19 49.1745C107.196 48.7563 106.099 48.5303 104.958 48.5303H82.567C81.4254 48.5303 80.329 48.7563 79.3344 49.1745C78.2945 49.604 77.3677 50.237 76.5765 51.0282C75.7966 51.8081 75.1637 52.7462 74.7229 53.7861C74.3046 54.7807 74.0786 55.8771 74.0786 57.0187V64.6029ZM133.983 94.7701H4.76978V122.044H6.38609C7.01904 120.258 7.67461 118.596 8.40929 117.116C9.20048 115.533 10.0934 114.132 11.1785 112.922C12.467 111.476 13.9816 110.357 15.8013 109.611C17.6211 108.876 19.746 108.503 22.3004 108.559L112.372 108.446C115.277 108.446 117.764 108.582 119.934 109C122.138 109.419 124.037 110.131 125.744 111.261C127.326 112.312 128.682 113.702 129.903 115.522C131.067 117.263 132.107 119.399 133.102 122.032H133.961V94.7701H133.983Z" fill="white"/>
</g>
<defs>
<clipPath id="clip0_36_107">
<rect width="138.889" height="138.889" fill="white" transform="translate(0 0.888916)"/>
</clipPath>
</defs>
</svg>
