<svg width="139" height="140" viewBox="0 0 139 140" fill="none" xmlns="http://www.w3.org/2000/svg">
<g clip-path="url(#clip0_36_87)">
<path d="M25.9902 3.92114C25.2244 3.92122 24.4899 4.22549 23.9483 4.76705C23.4068 5.3086 23.1025 6.04308 23.1024 6.80895V16.8711L4.09481 30.4472C3.72092 30.7148 3.41634 31.0679 3.2064 31.477C2.99646 31.8861 2.88723 32.3394 2.8878 32.7992V44.3504C2.88788 45.1163 3.19215 45.8507 3.73371 46.3923C4.27526 46.9338 5.00974 47.2381 5.77561 47.2382H69.3073C70.0731 47.2381 70.8076 46.9338 71.3492 46.3923C71.8907 45.8507 72.195 45.1163 72.1951 44.3504V32.7992C72.1956 32.3394 72.0864 31.8861 71.8765 31.477C71.6665 31.0679 71.3619 30.7148 70.9881 30.4472L51.9804 16.8768V6.80895C51.9804 6.04308 51.6761 5.3086 51.1345 4.76705C50.593 4.22549 49.8585 3.92122 49.0926 3.92114H25.9902ZM28.878 9.69675H46.2048V18.3602C46.2043 18.82 46.3135 19.2733 46.5234 19.6824C46.7334 20.0914 47.038 20.4445 47.4119 20.7121L66.4195 34.2826V41.4626H8.66341V34.2826L27.671 20.7121C28.0449 20.4445 28.3495 20.0914 28.5594 19.6824C28.7694 19.2733 28.8786 18.82 28.878 18.3602V9.69675ZM15.8829 64.565C13.9936 64.565 12.4112 65.7723 11.8163 67.4528H2.8878C2.12193 67.4529 1.38745 67.7572 0.845902 68.2987C0.304351 68.8403 7.65755e-05 69.5747 0 70.3406L0 133.872C7.65755e-05 134.638 0.304351 135.373 0.845902 135.914C1.38745 136.456 2.12193 136.76 2.8878 136.76H136.003C136.769 136.76 137.503 136.456 138.045 135.914C138.587 135.373 138.891 134.638 138.891 133.872V70.3406C138.891 69.5747 138.587 68.8403 138.045 68.2987C137.503 67.7572 136.769 67.4529 136.003 67.4528H63.2666C62.6717 65.7723 61.0893 64.565 59.2 64.565H15.8829ZM5.77561 73.2284H15.8829H59.2H69.5836V130.984H5.77561V73.2284ZM75.3592 73.2284H133.115V90.5552H75.3592V73.2284ZM14.439 79.004C13.6731 79.0041 12.9387 79.3084 12.3971 79.8499C11.8556 80.3915 11.5513 81.1259 11.5512 81.8918V122.321C11.5513 123.087 11.8556 123.821 12.3971 124.363C12.9387 124.905 13.6731 125.209 14.439 125.209H60.6439C61.4097 125.209 62.1442 124.905 62.6858 124.363C63.2273 123.821 63.5316 123.087 63.5317 122.321V81.8918C63.5316 81.1259 63.2273 80.3915 62.6858 79.8499C62.1442 79.3084 61.4097 79.0041 60.6439 79.004H14.439ZM86.6341 79.004C86.2514 78.9986 85.8715 79.0693 85.5164 79.212C85.1613 79.3547 84.8381 79.5665 84.5655 79.8352C84.293 80.1039 84.0766 80.4241 83.9289 80.7772C83.7812 81.1302 83.7051 81.5091 83.7051 81.8918C83.7051 82.2745 83.7812 82.6534 83.9289 83.0065C84.0766 83.3595 84.293 83.6797 84.5655 83.9484C84.8381 84.2171 85.1613 84.4289 85.5164 84.5716C85.8715 84.7143 86.2514 84.785 86.6341 84.7796H121.288C121.67 84.785 122.05 84.7143 122.405 84.5716C122.761 84.4289 123.084 84.2171 123.356 83.9484C123.629 83.6797 123.845 83.3595 123.993 83.0065C124.141 82.6534 124.217 82.2745 124.217 81.8918C124.217 81.5091 124.141 81.1302 123.993 80.7772C123.845 80.4241 123.629 80.1039 123.356 79.8352C123.084 79.5665 122.761 79.3547 122.405 79.212C122.05 79.0693 121.67 78.9986 121.288 79.004H86.6341ZM17.3268 84.7796H57.7561V119.433H17.3268V84.7796ZM75.3592 96.3308H133.115V130.984H75.3592V96.3308ZM86.589 104.955C85.8241 104.967 85.0951 105.282 84.5622 105.83C84.0292 106.379 83.7358 107.117 83.7463 107.882V122.321C83.7409 122.704 83.8116 123.084 83.9543 123.439C84.097 123.794 84.3088 124.117 84.5775 124.39C84.8462 124.662 85.1664 124.879 85.5194 125.026C85.8725 125.174 86.2514 125.25 86.6341 125.25C87.0168 125.25 87.3957 125.174 87.7487 125.026C88.1018 124.879 88.422 124.662 88.6907 124.39C88.9594 124.117 89.1712 123.794 89.3139 123.439C89.4566 123.084 89.5273 122.704 89.5219 122.321V107.882C89.5272 107.496 89.4549 107.112 89.3093 106.754C89.1637 106.396 88.9478 106.071 88.6743 105.798C88.4008 105.525 88.0753 105.31 87.7171 105.165C87.3589 105.02 86.9753 104.949 86.589 104.955Z" fill="white"/>
</g>
<defs>
<clipPath id="clip0_36_87">
<rect width="138.889" height="138.889" fill="white" transform="translate(0 0.888916)"/>
</clipPath>
</defs>
</svg>
