<svg width="139" height="140" viewBox="0 0 139 140" fill="none" xmlns="http://www.w3.org/2000/svg">
<path d="M124.769 53.6088H14.0625V131.097H124.769V53.6088Z" stroke="white" stroke-width="6" stroke-miterlimit="10"/>
<path d="M102.662 75.7153H36.2268V131.097H102.662V75.7153Z" stroke="white" stroke-width="6" stroke-miterlimit="10"/>
<path d="M3.00928 53.6088H135.88" stroke="white" stroke-width="6" stroke-miterlimit="10"/>
<path d="M135.88 131.097H3.00928" stroke="white" stroke-width="6" stroke-miterlimit="10"/>
<path d="M58.3912 3.78247V20.3913L36.2268 37.0001V53.6089H102.662V37.0001L80.4976 20.3913V3.78247" stroke="white" stroke-width="6" stroke-miterlimit="10"/>
<path d="M80.4976 120.044C80.4976 122.975 79.3331 125.787 77.2602 127.86C75.1873 129.933 72.3759 131.097 69.4444 131.097C66.5129 131.097 63.7014 129.933 61.6285 127.86C59.5556 125.787 58.3911 122.975 58.3911 120.044C58.3911 108.933 69.4444 97.8796 69.4444 97.8796C69.4444 97.8796 80.4976 108.933 80.4976 120.044Z" stroke="white" stroke-width="6" stroke-miterlimit="10"/>
</svg>
